<?xml version="1.0" standalone="yes"?>
<svg width="921" height="128">
<path style="fill:#000000; stroke:none;" d="M0 0L0 8L1 8L8 1L0 0z"/>
<path style="fill:#222288; stroke:none;" d="M8.00386 0.652779C-2.73516 4.06608 0 18.3047 0 27L0 95C0 102.873 -2.50553 116.067 2.00926 122.895C7.30076 130.898 21.7778 128 30 128L92 128C100.421 128 111.984 130.044 119.996 127.297C130.704 123.626 128 109.842 128 101L128 31C128 23.4826 130.498 10.4782 125.347 4.32948C119.368 -2.8078 105.287 0 97 0L36 0C27.4767 0 16.1684 -1.94223 8.00386 0.652779z"/>
<path style="fill:#000000; stroke:none;" d="M120 0L120 1C130.141 7.00287 128 17.6885 128 28L128 99C128 109.514 130.367 120.863 120 127L120 128L921 128L921 0L120 0z"/>
<path style="fill:#0000aa; stroke:none;" d="M306 14L314.852 27.044L315 87L306 88L306 95L334 95L334 88L326 87L326 14L306 14M461 14L461 25L472 25L472 14L461 14M181 19L181 27C188.962 27.615 190.075 36.5273 192.343 43C198.36 60.1677 206.896 77.2687 211 95L221.914 93.3966L229.424 74L246 27L252 27L252 19L228 19L228 27L235 27L217 79L216 79L199 27L205 27L205 19L181 19M612 19L612 27L620 28L620 87L612 88L612 95L666 95L666 75C657.028 75.0318 657.001 78.9004 657 87L631 87L631 28L639 27L639 19L612 19M493 25L493 39L484 39L484 47L493 47C493 58.1677 488.071 85.3885 497.343 93.3472C502.68 97.9275 512.685 96.1723 519 95L517 87C497.613 90.5843 504 59.5949 504 47L516 47L516 39L504 39L504 25L493 25z"/>
<path style="fill:#ffffff; stroke:none;" d="M28 26L28 33C36.2481 33.6288 37.5014 42.3139 39.9468 49C46.5299 66.9994 55.5839 85.3646 60 104L70 104C74.3376 85.696 83.1551 67.6514 89.6813 50C92.2132 43.1521 93.4925 33.6486 102 33L102 26L78 26L78 33L85 33L66 89L58.9969 71L46 33L52 33L52 26L28 26z"/>
<path style="fill:#bebedc; stroke:none;" d="M52 26L52 33L53 33L52 26z"/>
<path style="fill:#b0b0d4; stroke:none;" d="M77 26L77 33L78 33L77 26z"/>
<path style="fill:#6060a9; stroke:none;" d="M30 33L30 34L34 34L30 33z"/>
<path style="fill:#ababd2; stroke:none;" d="M46 33L46 34L49 34L46 33z"/>
<path style="fill:#7171b3; stroke:none;" d="M80.6667 33.3333L81.3333 33.6667L80.6667 33.3333z"/>
<path style="fill:#aeaed3; stroke:none;" d="M82 33L82 34L85 34L82 33z"/>
<path style="fill:#7d7db9; stroke:none;" d="M96 33L96 34L99 34L96 33z"/>
<path style="fill:#0000aa; stroke:none;" d="M446 77L436 77C432.905 86.0986 422.537 90.6108 415.214 82.8912C410.334 77.7478 409.337 69.7884 410.185 63C412.313 45.9582 433.541 40.6614 436 60L445 60C445 55.3633 446.104 49.0841 443.397 45.0432C436.195 34.2931 415.86 35.8919 407.185 43.5293C400.038 49.8219 398.986 59.1108 399 68C399.016 78.425 402.2 88.5043 412.001 93.6721C426.015 101.061 445.6 93.9926 446 77M733 57L742 57C742.49 48.0827 752.585 43.4583 759.891 49.4336C763.933 52.7397 763.986 57.211 764 62C754.544 62 744.091 60.5521 736.043 66.6381C726.86 73.5825 727.847 90.4516 739.001 94.9907C747.937 98.6274 756.559 94.5717 764 90L765 95L781 95L781 88C773.692 86.4761 775 80.1538 775 74C775 64.1681 777.692 49.9748 769.671 42.5324C762.703 36.0678 739.961 34.4921 734.028 43.5324C731.82 46.8957 733 53.1396 733 57M295 82C281.139 87.0439 265.804 90.5365 264 70L300 70C300 62.9671 300.632 55.4754 297.316 49C289.882 34.4831 269.222 34.5128 259.213 46.0147C251.684 54.6665 250.747 70.4846 254.714 81C259.322 93.2178 270.156 96.2945 282 95.9853C291.298 95.7426 300.008 92.0332 295 82M357 38.5324C344.369 41.5416 340.004 54.5263 340 66C339.993 85.0873 351.093 100.164 372 95.6096C403.876 88.6654 392.48 30.0799 357 38.5324M717 82C703.139 87.044 687.804 90.5364 686 70L722 70C722 62.967 722.632 55.4755 719.316 49C711.882 34.4831 691.222 34.5129 681.213 46.0147C673.684 54.6666 672.747 70.4846 676.714 81C681.322 93.2178 692.156 96.2945 704 95.9853C713.298 95.7426 722.008 92.0332 717 82M806 44L806 39L787 39L787 46L796 47L796 87L787 88L787 95L815 95L815 88L807 87C807 70.0384 801.895 48.1913 825 48L826 38C817.364 38 813.172 39.1213 806 44M850 45L850 39L831 39L831 46C845.75 48.9148 840 74.7823 840 87L831 88L831 95L859 95L859 88L851 87C851 78.0601 847.9 62.0248 852.028 54.0154C856.227 45.8669 868.3 44.639 872.836 53.0154C877.729 62.0523 875 77.0445 875 87L866 88L866 95L894 95L894 88L886 87C886 74.8675 888.42 59.5042 883.853 48C878.046 33.3743 859.302 36.5359 850 45M453 39C453.074 45.1903 454.795 46.8495 461 47L461 87L453 88L453 95L481 95L481 88L472 87L472 39L453 39M522 39L522 47C529.913 47.6112 531.442 56.6061 534 63C538.99 75.4736 557.884 108.35 531 109L530 118C535.209 118 541.336 118.885 545.96 115.991C557.68 108.656 562.719 82.4383 567.319 70C570.164 62.306 572.435 47.7292 582 47L582 39L558 39L558 47L564 47L553 81L552 81L540 47L546 47L546 39L522 39z"/>
<path style="fill:#000000; stroke:none;" d="M264 61L289 61C288.097 41.2971 268.574 45.2329 264 61M360.004 47.7423C343.552 54.1123 349.154 94.4306 369.985 86.2577C386.157 79.9128 380.679 39.7369 360.004 47.7423M686 61L711 61C710.098 41.2971 690.573 45.2328 686 61M764 69C760.622 69.0022 757.348 69.0931 754 69.5795C751.664 69.9189 749.145 70.0682 747.015 71.1782C729.568 80.2714 756.762 96.4404 763.397 78.9846C764.538 75.9805 764 72.1586 764 69z"/>
<path style="fill:#b0b0d4; stroke:none;" d="M63.3333 84.6667L63.6667 85.3333L63.3333 84.6667z"/>
<path style="fill:#7c7cb8; stroke:none;" d="M64.6667 88.3333L65.3333 88.6667L64.6667 88.3333z"/>
<path style="fill:#000000; stroke:none;" d="M0 120L0 128L8 128L8 127L0 120z"/>
</svg>
